<svg xmlns="http://www.w3.org/2000/svg" xmlns:xlink="http://www.w3.org/1999/xlink" width="500" zoomAndPan="magnify" viewBox="0 0 375 374.999991" height="500" preserveAspectRatio="xMidYMid meet" version="1.0"><defs><g/><clipPath id="e16cb003f6"><path d="M 127 2.542969 L 344 2.542969 L 344 339 L 127 339 Z M 127 2.542969 " clip-rule="nonzero"/></clipPath><clipPath id="58be299f44"><path d="M 29.59375 69 L 209 69 L 209 339 L 29.59375 339 Z M 29.59375 69 " clip-rule="nonzero"/></clipPath></defs><g fill="#000000" fill-opacity="1"><g transform="translate(133.899766, 174.951478)"><g><path d="M 6.640625 0 L 6.390625 -1.21875 L 6.328125 -1.21875 C 5.898438 -0.6875 5.472656 -0.320312 5.046875 -0.125 C 4.617188 0.0625 4.085938 0.15625 3.453125 0.15625 C 2.609375 0.15625 1.941406 -0.0625 1.453125 -0.5 C 0.972656 -0.9375 0.734375 -1.5625 0.734375 -2.375 C 0.734375 -4.101562 2.117188 -5.007812 4.890625 -5.09375 L 6.34375 -5.140625 L 6.34375 -5.671875 C 6.34375 -6.335938 6.195312 -6.832031 5.90625 -7.15625 C 5.613281 -7.476562 5.148438 -7.640625 4.515625 -7.640625 C 3.804688 -7.640625 3 -7.421875 2.09375 -6.984375 L 1.703125 -7.96875 C 2.117188 -8.195312 2.578125 -8.375 3.078125 -8.5 C 3.585938 -8.632812 4.09375 -8.703125 4.59375 -8.703125 C 5.613281 -8.703125 6.367188 -8.472656 6.859375 -8.015625 C 7.359375 -7.566406 7.609375 -6.84375 7.609375 -5.84375 L 7.609375 0 Z M 3.71875 -0.921875 C 4.519531 -0.921875 5.148438 -1.140625 5.609375 -1.578125 C 6.078125 -2.023438 6.3125 -2.644531 6.3125 -3.4375 L 6.3125 -4.21875 L 5.015625 -4.15625 C 3.984375 -4.125 3.238281 -3.960938 2.78125 -3.671875 C 2.320312 -3.390625 2.09375 -2.953125 2.09375 -2.359375 C 2.09375 -1.890625 2.234375 -1.53125 2.515625 -1.28125 C 2.804688 -1.039062 3.207031 -0.921875 3.71875 -0.921875 Z M 3.71875 -0.921875 "/></g></g></g><g clip-path="url(#e16cb003f6)"><path fill="#0cc0df" d="M 253.761719 2.554688 C 253.761719 22.050781 253.761719 58.390625 253.761719 77.457031 C 243.109375 73.691406 231.832031 71.230469 220.136719 70.269531 C 220.136719 95.652344 220.136719 135.503906 220.136719 160.882812 C 256.34375 169.8125 265.761719 218.671875 235.519531 240.40625 C 216.527344 255.113281 186.457031 250.507812 172.746094 230.777344 C 167.140625 261.691406 151.078125 290.539062 127.921875 311.6875 C 207.246094 372.429688 325.542969 325.464844 341.566406 226.726562 C 345.398438 201.558594 342.625 162.789062 343.429688 137.054688 C 343.449219 94.527344 343.414062 45.238281 343.429688 2.554688 C 321.082031 2.554688 276.105469 2.554688 253.761719 2.554688 Z M 253.761719 2.554688 " fill-opacity="1" fill-rule="nonzero"/></g><g clip-path="url(#58be299f44)"><path fill="#00aeef" d="M 162.234375 226.722656 C 165.269531 212.183594 161.707031 194.878906 170.09375 181.890625 C 177.925781 168.1875 193.035156 159.363281 208.929688 159.46875 C 208.929688 134.445312 208.929688 94.828125 208.929688 69.804688 C 144.734375 68.882812 86.140625 118.398438 76.289062 181.890625 C 73.25 196.433594 76.816406 213.730469 68.429688 226.722656 C 60.59375 240.421875 45.488281 249.246094 29.59375 249.140625 C 29.59375 274.164062 29.59375 313.785156 29.59375 338.808594 C 93.785156 339.730469 152.386719 290.210938 162.234375 226.722656 Z M 162.234375 226.722656 " fill-opacity="1" fill-rule="nonzero"/></g></svg>