<svg xmlns="http://www.w3.org/2000/svg" xmlns:xlink="http://www.w3.org/1999/xlink" width="500" zoomAndPan="magnify" viewBox="0 0 375 374.999991" height="500" preserveAspectRatio="xMidYMid meet" version="1.0"><defs><g/></defs><g fill="#436cb2" fill-opacity="1"><g transform="translate(9.881582, 252.190199)"><g><path d="M 48.734375 -147.8125 C 47.804688 -144.632812 45.332031 -143.378906 41.3125 -144.046875 C 38.96875 -139.441406 34.613281 -138.859375 28.25 -142.296875 L 28.625 -139.65625 C 23.4375 -138.476562 21.175781 -135.503906 21.84375 -130.734375 C 5.1875 -124.035156 -2.007812 -112.359375 0.25 -95.703125 C -1.257812 -95.109375 -2.015625 -94.101562 -2.015625 -92.6875 C -0.253906 -92.769531 0.75 -92.015625 1 -90.421875 C -1.257812 -89.171875 -1.882812 -87.285156 -0.875 -84.765625 L 1.75 -85.140625 C 1.925781 -82.296875 1.382812 -79.867188 0.125 -77.859375 C 2.550781 -76.191406 2.800781 -74.1875 0.875 -71.84375 L 3.640625 -71.328125 L 4.265625 -66.9375 C 8.367188 -64.507812 10.878906 -61.328125 11.796875 -57.390625 C 16.410156 -55.460938 19.257812 -52.28125 20.34375 -47.84375 C 27.207031 -44.75 32.273438 -40.144531 35.546875 -34.03125 L 40.8125 -34.78125 L 44.078125 -29.890625 L 49.359375 -30.640625 L 49.734375 -28 L 60.15625 -29.515625 C 60.820312 -24.742188 63.664062 -23.363281 68.6875 -25.375 C 70.28125 -19.34375 74.132812 -17.25 80.25 -19.09375 C 80.832031 -17.664062 81.835938 -16.910156 83.265625 -16.828125 C 84.773438 -12.972656 84.269531 -10.253906 81.75 -8.671875 C 83.925781 -1.378906 82.921875 4.101562 78.734375 7.78125 L 82.140625 12.6875 L 77.234375 15.953125 C 77.066406 6.828125 75.476562 1.71875 72.46875 0.625 C 72.039062 -5.570312 70.40625 -10.632812 67.5625 -14.5625 L 63.296875 -13.9375 L 59.78125 -13.5625 L 55.390625 -12.9375 L 44.078125 -11.296875 L 40.6875 -10.796875 L 25.875 -8.671875 L 23.234375 -8.28125 L 12.8125 -6.90625 C 12.8125 -5.0625 12.054688 -4.054688 10.546875 -3.890625 C 12.472656 1.460938 11.09375 4.304688 6.40625 4.640625 C 8.332031 6.984375 9.585938 9.5 10.171875 12.1875 C 14.941406 14.445312 16.28125 17.796875 14.1875 22.234375 C 20.71875 20.222656 22.726562 21.726562 20.21875 26.75 C 24.90625 25.75 25.992188 27.335938 23.484375 31.515625 C 26.160156 32.191406 27.289062 33.828125 26.875 36.421875 C 32.226562 34.492188 35.078125 35.875 35.421875 40.5625 C 38.347656 41.40625 40.351562 42.910156 41.4375 45.078125 C 44.625 44.078125 47.097656 42.820312 48.859375 41.3125 L 49.609375 46.46875 C 61.078125 49.976562 71.664062 49.390625 81.375 44.703125 L 80.625 39.4375 L 86.15625 41.3125 L 85.390625 36.171875 C 89.578125 37.929688 90.082031 41.40625 86.90625 46.59375 C 92.09375 43.238281 96.863281 43.445312 101.21875 47.21875 C 111.769531 39.769531 115.957031 40.0625 113.78125 48.09375 C 116.625 44.75 119.847656 42.53125 123.453125 41.4375 C 122.867188 37.257812 124.25 34.414062 127.59375 32.90625 C 127.59375 26.039062 130.566406 22.0625 136.515625 20.96875 L 138.390625 15.328125 L 140.90625 14.0625 C 141.238281 9.125 143.414062 5.566406 147.4375 3.390625 C 146.769531 -0.796875 148.148438 -3.644531 151.578125 -5.15625 C 148.566406 -9.925781 147.898438 -14.570312 149.578125 -19.09375 C 144.628906 -24.945312 142.910156 -30.640625 144.421875 -36.171875 C 141.828125 -36.835938 140.738281 -38.425781 141.15625 -40.9375 C 139.476562 -41.269531 138.179688 -41.984375 137.265625 -43.078125 C 135.421875 -44.585938 134.582031 -46.257812 134.75 -48.09375 L 132.25 -47.71875 C 130.320312 -50.0625 129.0625 -52.535156 128.46875 -55.140625 C 122.019531 -57.140625 117.921875 -61.03125 116.171875 -66.8125 C 113.148438 -67.644531 111.179688 -69.109375 110.265625 -71.203125 C 107.671875 -70.285156 105.785156 -70.914062 104.609375 -73.09375 C 102.265625 -70.414062 100.507812 -70.164062 99.34375 -72.34375 L 89.296875 -68.3125 L 88.03125 -70.828125 L 85.53125 -70.453125 L 83.640625 -71.078125 L 82.515625 -72.59375 C 79.992188 -72 78.398438 -72.664062 77.734375 -74.59375 C 72.546875 -74.757812 67.941406 -75.890625 63.921875 -77.984375 C 63.753906 -85.773438 60.40625 -90.632812 53.875 -92.5625 C 54.789062 -95.40625 56.296875 -97.414062 58.390625 -98.59375 C 55.710938 -100.9375 55.460938 -102.648438 57.640625 -103.734375 L 54.375 -108.640625 L 59.53125 -109.390625 C 61.03125 -104.191406 62.535156 -99.960938 64.046875 -96.703125 L 69.203125 -97.453125 C 70.285156 -100.640625 72.796875 -101.851562 76.734375 -101.09375 C 77.066406 -96.320312 78.488281 -92.390625 81 -89.296875 L 78.875 -85.53125 L 83.765625 -88.796875 C 83.847656 -85.691406 83.347656 -82.96875 82.265625 -80.625 C 85.023438 -81.375 87.203125 -82.546875 88.796875 -84.140625 L 90.421875 -79.125 C 95.191406 -84.394531 100.003906 -85.941406 104.859375 -83.765625 C 105.785156 -86.691406 109.554688 -87.238281 116.171875 -85.40625 C 117.253906 -88.582031 119.765625 -89.835938 123.703125 -89.171875 C 123.617188 -90.921875 124.375 -91.882812 125.96875 -92.0625 L 122.578125 -96.953125 L 127.84375 -97.703125 C 126.164062 -101.472656 126.628906 -104.195312 129.234375 -105.875 L 127.71875 -117.171875 C 125.039062 -120.179688 123.703125 -123.28125 123.703125 -126.46875 L 121.0625 -126.09375 L 120.3125 -131.234375 L 117.796875 -130.859375 L 117.046875 -136.140625 C 109.171875 -135.296875 104.316406 -138.140625 102.484375 -144.671875 C 98.460938 -146.015625 95.488281 -148.273438 93.5625 -151.453125 C 83.851562 -146.179688 77.738281 -145.304688 75.21875 -148.828125 C 70.113281 -146.816406 66.515625 -147.191406 64.421875 -149.953125 L 56.640625 -148.953125 C 55.804688 -145.929688 54.300781 -143.921875 52.125 -142.921875 C 54.039062 -140.578125 55.296875 -138.109375 55.890625 -135.515625 C 49.773438 -137.429688 48.304688 -141.363281 51.484375 -147.3125 Z M 50.609375 -134.75 C 55.210938 -133.832031 56.46875 -131.320312 54.375 -127.21875 C 57.644531 -126.050781 59.238281 -120.988281 59.15625 -112.03125 L 54 -111.265625 C 53.75 -114.203125 54.296875 -116.628906 55.640625 -118.546875 C 53.203125 -120.222656 52.90625 -122.273438 54.75 -124.703125 C 51.238281 -126.128906 49.859375 -129.476562 50.609375 -134.75 Z M 60.28125 -85.53125 C 59.78125 -82.675781 58.898438 -82.546875 57.640625 -85.140625 Z M 120.3125 -93.9375 C 119.8125 -91.175781 118.929688 -91.050781 117.671875 -93.5625 Z M 65.4375 -11.671875 C 65.34375 -5.648438 64.460938 -5.523438 62.796875 -11.296875 Z M 15.703125 14.0625 C 18.210938 14.5625 18.335938 15.441406 16.078125 16.703125 Z M 80.75 15.453125 C 84.101562 18.296875 84.1875 20.972656 81 23.484375 Z M 135.890625 15.703125 C 135.296875 18.378906 134.414062 18.503906 133.25 16.078125 Z M 78.734375 26.375 C 80.492188 26.375 81.5 27.128906 81.75 28.640625 C 80 28.640625 78.992188 27.882812 78.734375 26.375 Z M 82.640625 28.515625 C 85.984375 31.273438 86.066406 33.953125 82.890625 36.546875 Z M 40.6875 39.8125 C 43.113281 40.3125 43.238281 41.191406 41.0625 42.453125 Z M 104.109375 36.171875 C 103.609375 39.015625 102.726562 39.140625 101.46875 36.546875 Z M 104.109375 36.171875 "/></g></g></g><g fill="#436cb2" fill-opacity="1"><g transform="translate(161.084864, 252.190199)"><g><path d="M 47.109375 -156.734375 C 47.359375 -152.296875 45.304688 -150.535156 40.953125 -151.453125 C 37.765625 -148.441406 35.421875 -148.441406 33.921875 -151.453125 C 28.390625 -148.691406 24.867188 -149.570312 23.359375 -154.09375 C 19.765625 -152.164062 16.546875 -152.164062 13.703125 -154.09375 C 10.679688 -151.332031 7.75 -149.578125 4.90625 -148.828125 L 7.546875 -143.546875 L 2.265625 -143.546875 C 3.523438 -138.191406 2.644531 -134.675781 -0.375 -133 C 1.300781 -130.320312 1.300781 -127.679688 -0.375 -125.078125 C 3.894531 -125.078125 6.535156 -123.320312 7.546875 -119.8125 C 4.359375 -119.3125 1.71875 -118.429688 -0.375 -117.171875 C 1.800781 -112.148438 1.800781 -107.171875 -0.375 -102.234375 C 3.8125 -96.953125 3.8125 -91.382812 -0.375 -85.53125 C 3.894531 -82.59375 3.894531 -78.195312 -0.375 -72.34375 C 4.226562 -69.070312 4.226562 -63.796875 -0.375 -56.515625 C 2.976562 -54.835938 2.976562 -52.203125 -0.375 -48.609375 C 4.738281 -48.691406 5.617188 -47.8125 2.265625 -45.96875 C 2.929688 -42.03125 2.050781 -39.097656 -0.375 -37.171875 C 1.300781 -33.578125 1.300781 -30.351562 -0.375 -27.5 C 4.65625 -23.738281 4.65625 -20.222656 -0.375 -16.953125 C 4.0625 -10.503906 4.941406 -4.351562 2.265625 1.5 C 4.773438 2.507812 5.65625 4.269531 4.90625 6.78125 C 6.664062 6.945312 7.546875 7.828125 7.546875 9.421875 L 4.90625 9.421875 L 4.90625 19.09375 C 1.8125 23.195312 0.929688 27.59375 2.265625 32.28125 C 5.703125 34.625 7.460938 37.550781 7.546875 41.0625 C 17.503906 44.832031 24.535156 43.957031 28.640625 38.4375 L 33.921875 38.4375 L 33.921875 41.0625 C 38.097656 41.0625 40.734375 42.820312 41.828125 46.34375 L 44.46875 46.34375 C 42.957031 43.664062 42.078125 41.03125 41.828125 38.4375 L 55.015625 43.703125 C 55.015625 34.160156 56.1875 33.28125 58.53125 41.0625 L 62.921875 38.4375 L 62.921875 35.796875 C 60.078125 36.378906 58.320312 35.5 57.65625 33.15625 C 56.644531 29.050781 57.519531 26.414062 60.28125 25.25 C 57.851562 21.476562 58.734375 18.546875 62.921875 16.453125 C 61.160156 14.941406 59.40625 14.351562 57.65625 14.6875 C 58.738281 12.257812 60.492188 11.382812 62.921875 12.0625 C 59.328125 7.195312 59.328125 3.675781 62.921875 1.5 C 61.335938 -2.9375 61.335938 -7.328125 62.921875 -11.671875 C 59.492188 -13.015625 57.738281 -15.363281 57.65625 -18.71875 C 58.488281 -22.8125 60.242188 -26.03125 62.921875 -28.375 C 62.835938 -31.976562 61.082031 -33.445312 57.65625 -32.78125 C 57.90625 -34.457031 58.78125 -35.335938 60.28125 -35.421875 C 58.863281 -42.203125 59.742188 -46.597656 62.921875 -48.609375 C 61.160156 -51.703125 61.160156 -54.921875 62.921875 -58.265625 C 60.828125 -59.859375 60.828125 -61.328125 62.921875 -62.671875 C 60.992188 -64.765625 60.992188 -66.816406 62.921875 -68.828125 C 59.992188 -72.335938 59.113281 -76.144531 60.28125 -80.25 L 55.015625 -80.25 C 57.023438 -84.601562 57.023438 -88.117188 55.015625 -90.796875 C 60.035156 -90.210938 63.550781 -91.972656 65.5625 -96.078125 C 62.882812 -94.566406 60.25 -93.6875 57.65625 -93.4375 C 58.570312 -97.289062 57.691406 -99.925781 55.015625 -101.34375 C 54.847656 -105.113281 55.726562 -108.335938 57.65625 -111.015625 C 56.476562 -115.453125 57.351562 -118.382812 60.28125 -119.8125 C 58.445312 -123.75 58.445312 -127.265625 60.28125 -130.359375 C 58.945312 -130.691406 58.070312 -131.28125 57.65625 -132.125 C 60.5 -135.882812 61.375 -139.691406 60.28125 -143.546875 L 57.65625 -143.546875 C 57.90625 -150.742188 54.390625 -155.140625 47.109375 -156.734375 Z M 3.140625 -117.171875 C 8.253906 -116.003906 7.960938 -115.125 2.265625 -114.53125 L 2.265625 -117.171875 L 3.140625 -117.171875 L 2.265625 -117.171875 Z M 4.90625 -109.265625 C 9.34375 -106.160156 8.460938 -103.519531 2.265625 -101.34375 C 2.597656 -104.445312 3.476562 -107.085938 4.90625 -109.265625 Z M 70.84375 -93.4375 C 67.820312 -88.832031 68.695312 -87.953125 73.46875 -90.796875 C 73.21875 -92.390625 72.34375 -93.269531 70.84375 -93.4375 Z M 4.90625 -85.53125 C 7.25 -84.601562 7.25 -83.722656 4.90625 -82.890625 Z M 60.28125 -85.53125 C 62.96875 -80 65.609375 -80 68.203125 -85.53125 C 65.359375 -83.769531 62.71875 -83.769531 60.28125 -85.53125 Z M 7.546875 -74.96875 C 6.703125 -72.289062 5.820312 -72.289062 4.90625 -74.96875 Z M 7.546875 -61.78125 C 6.703125 -59.101562 5.820312 -59.101562 4.90625 -61.78125 Z M 55.015625 -51.234375 C 54.179688 -48.554688 53.300781 -48.554688 52.375 -51.234375 Z M 47.109375 -48.609375 C 46.179688 -45.921875 45.300781 -45.921875 44.46875 -48.609375 Z M 49.734375 -45.96875 C 56.859375 -41.945312 55.101562 -40.1875 44.46875 -40.6875 C 45.550781 -43.113281 47.304688 -43.992188 49.734375 -43.328125 Z M 44.46875 -38.046875 C 46.8125 -37.128906 46.8125 -36.253906 44.46875 -35.421875 Z M 60.28125 33.15625 C 62.96875 32.320312 62.96875 31.441406 60.28125 30.515625 Z M 33.921875 35.796875 C 36.265625 36.710938 36.265625 37.59375 33.921875 38.4375 Z M 49.734375 35.796875 C 48.898438 38.472656 48.023438 38.472656 47.109375 35.796875 Z M 49.734375 35.796875 "/></g></g></g><g fill="#436cb2" fill-opacity="1"><g transform="translate(234.551612, 252.190199)"><g><path d="M 16.578125 -173.0625 C 15.492188 -170.632812 13.738281 -169.753906 11.3125 -170.421875 C 14.070312 -165.148438 12.3125 -162.515625 6.03125 -162.515625 C 7.625 -159.492188 9.382812 -157.148438 11.3125 -155.484375 C 10.46875 -154.890625 9.585938 -154.59375 8.671875 -154.59375 L 11.3125 -150.203125 C 10.46875 -149.617188 9.585938 -149.328125 8.671875 -149.328125 C 9.765625 -145.390625 8.882812 -142.75 6.03125 -141.40625 C 6.195312 -137.132812 7.078125 -133.617188 8.671875 -130.859375 L 6.03125 -130.859375 C 8.375 -128.179688 8.375 -126.425781 6.03125 -125.59375 C 7.875 -122.320312 8.753906 -118.800781 8.671875 -115.03125 C 5.066406 -113.445312 3.304688 -110.8125 3.390625 -107.125 L 0.765625 -107.125 C 2.515625 -103.101562 2.515625 -99.585938 0.765625 -96.578125 C 3.441406 -97.160156 5.195312 -96.28125 6.03125 -93.9375 L 3.390625 -93.9375 L 3.390625 -74.59375 C 5.484375 -71.832031 6.363281 -68.90625 6.03125 -65.8125 C 4.351562 -61.789062 3.472656 -57.976562 3.390625 -54.375 L 8.671875 -51.734375 C 7.671875 -49.140625 5.910156 -48.265625 3.390625 -49.109375 C 5.316406 -45.503906 5.316406 -42.28125 3.390625 -39.4375 L 6.03125 -38.5625 C 5.78125 -36.882812 4.898438 -36.003906 3.390625 -35.921875 C 2.140625 -28.972656 3.019531 -24.578125 6.03125 -22.734375 L 6.03125 -18.328125 L 3.390625 -16.578125 C 3.390625 -11.972656 4.269531 -7.867188 6.03125 -4.265625 L 3.390625 -4.265625 C 2.890625 -0.503906 3.769531 2.421875 6.03125 4.515625 C 4.101562 11.128906 4.101562 16.992188 6.03125 22.109375 C 8.882812 23.441406 10.9375 25.195312 12.1875 27.375 C 15.957031 26.625 18.300781 27.503906 19.21875 30.015625 C 21.894531 28.335938 24.535156 28.335938 27.140625 30.015625 C 31.316406 24.148438 36.003906 23.269531 41.203125 27.375 C 44.378906 24.363281 46.722656 24.363281 48.234375 27.375 C 52.171875 26.289062 54.804688 27.171875 56.140625 30.015625 L 58.78125 30.015625 C 59.53125 23.734375 61.289062 23.734375 64.0625 30.015625 L 69.328125 30.015625 C 71.171875 25.492188 74.6875 24.613281 79.875 27.375 L 79.875 24.734375 C 82.300781 25.828125 83.179688 27.585938 82.515625 30.015625 C 85.191406 29.429688 86.953125 30.3125 87.796875 32.65625 C 92.898438 33.488281 96.707031 32.609375 99.21875 30.015625 L 101.859375 32.65625 C 102.773438 31.894531 103.359375 31.015625 103.609375 30.015625 C 108.222656 31.941406 112.617188 31.941406 116.796875 30.015625 L 116.796875 24.734375 L 122.078125 27.375 C 123.078125 23.519531 124.835938 20.882812 127.359375 19.46875 C 127.097656 17.875 126.21875 16.992188 124.71875 16.828125 L 127.359375 12.4375 C 125.597656 9.082031 125.597656 6.148438 127.359375 3.640625 C 125.179688 -1.046875 124.300781 -5.441406 124.71875 -9.546875 C 127.394531 -9.046875 129.148438 -9.925781 129.984375 -12.1875 C 126.722656 -11.757812 124.085938 -10.878906 122.078125 -9.546875 L 122.078125 -14.8125 C 113.453125 -13.226562 110.816406 -14.988281 114.171875 -20.09375 L 106.25 -14.8125 C 103.90625 -18.582031 100.679688 -18.582031 96.578125 -14.8125 C 92.984375 -18.082031 89.46875 -18.082031 86.03125 -14.8125 C 85.445312 -15.65625 85.15625 -16.535156 85.15625 -17.453125 C 74.601562 -17.953125 65.8125 -17.070312 58.78125 -14.8125 C 57.519531 -22.1875 59.28125 -27.460938 64.0625 -30.640625 C 63.46875 -33.316406 64.34375 -35.078125 66.6875 -35.921875 C 65.101562 -38.515625 64.226562 -41.148438 64.0625 -43.828125 C 65.726562 -43.578125 66.601562 -42.695312 66.6875 -41.1875 C 75.8125 -45.875 81.96875 -45.875 85.15625 -41.1875 L 92.1875 -41.1875 C 96.375 -44.707031 100.769531 -46.46875 105.375 -46.46875 C 108.976562 -49.644531 112.785156 -51.398438 116.796875 -51.734375 L 116.796875 -59.65625 L 119.4375 -59.65625 C 119.4375 -63.925781 121.195312 -66.5625 124.71875 -67.5625 L 124.71875 -72.84375 C 121.695312 -74.34375 120.816406 -76.976562 122.078125 -80.75 C 120.566406 -81.332031 119.394531 -82.210938 118.5625 -83.390625 L 115.046875 -86.03125 C 105.503906 -84.851562 97.296875 -85.734375 90.421875 -88.671875 L 84.28125 -88.671875 L 79.875 -86.03125 L 79.875 -88.671875 C 75.601562 -88.585938 72.085938 -89.460938 69.328125 -91.296875 C 67.398438 -87.453125 64.765625 -84.816406 61.421875 -83.390625 C 58.578125 -90.335938 58.578125 -93.851562 61.421875 -93.9375 L 58.78125 -99.21875 C 61.457031 -98.625 63.21875 -99.5 64.0625 -101.84375 C 61.375 -101.257812 59.613281 -102.140625 58.78125 -104.484375 C 63.882812 -108.421875 68.28125 -109.300781 71.96875 -107.125 L 69.328125 -112.40625 C 74.429688 -111.476562 78.828125 -109.71875 82.515625 -107.125 C 81.847656 -111.8125 84.484375 -112.691406 90.421875 -109.765625 C 90.679688 -115.285156 97.71875 -116.164062 111.53125 -112.40625 L 111.53125 -109.765625 C 114.207031 -111.441406 116.84375 -111.441406 119.4375 -109.765625 C 119.269531 -113.953125 121.03125 -115.707031 124.71875 -115.03125 C 125.96875 -117.882812 127.722656 -119.644531 129.984375 -120.3125 C 127.722656 -125.25 127.722656 -129.644531 129.984375 -133.5 L 124.71875 -136.140625 C 125.96875 -138.816406 127.722656 -140.570312 129.984375 -141.40625 C 129.734375 -143 128.859375 -143.878906 127.359375 -144.046875 C 130.785156 -152.921875 128.144531 -158.195312 119.4375 -159.875 L 119.4375 -165.140625 C 117.84375 -164.890625 116.960938 -164.015625 116.796875 -162.515625 C 110.179688 -165.691406 104.03125 -165.691406 98.34375 -162.515625 L 98.34375 -167.78125 C 95.832031 -165.6875 93.78125 -165.6875 92.1875 -167.78125 C 90.007812 -162.34375 87.957031 -162.34375 86.03125 -167.78125 C 80.84375 -162.84375 77.914062 -163.722656 77.25 -170.421875 C 72.976562 -168.742188 69.457031 -168.742188 66.6875 -170.421875 C 64.59375 -165.734375 63.71875 -161.335938 64.0625 -157.234375 L 61.421875 -157.234375 L 61.421875 -167.78125 C 57.484375 -166.695312 54.84375 -167.578125 53.5 -170.421875 C 48.3125 -166.484375 45.675781 -167.363281 45.59375 -173.0625 C 37.382812 -169.125 29.472656 -168.242188 21.859375 -170.421875 L 21.859375 -173.0625 Z M 17.46875 -170.421875 C 18.800781 -167.992188 18.503906 -167.992188 16.578125 -170.421875 L 17.46875 -170.421875 L 16.578125 -170.421875 Z M 58.78125 -165.140625 C 56.9375 -161.710938 55.175781 -161.710938 53.5 -165.140625 Z M 95.703125 -162.515625 C 97.296875 -162.179688 98.175781 -161.300781 98.34375 -159.875 C 96.664062 -160.125 95.785156 -161.003906 95.703125 -162.515625 Z M 61.421875 -157.234375 C 60.492188 -154.472656 59.613281 -154.472656 58.78125 -157.234375 Z M 62.296875 -154.59375 C 63.972656 -151.914062 63.679688 -151.914062 61.421875 -154.59375 L 62.296875 -154.59375 L 61.421875 -154.59375 Z M 61.421875 -151.953125 C 65.609375 -130.109375 64.726562 -122.195312 58.78125 -128.21875 C 60.289062 -130.90625 60.289062 -133.25 58.78125 -135.25 L 61.421875 -137.890625 C 58.234375 -141.828125 57.351562 -146.515625 58.78125 -151.953125 Z M 58.78125 -125.59375 C 63.21875 -124.082031 64.097656 -121.441406 61.421875 -117.671875 C 66.691406 -113.734375 65.8125 -110.21875 58.78125 -107.125 Z M 71.96875 -117.671875 C 73.644531 -117.421875 74.523438 -116.539062 74.609375 -115.03125 C 72.929688 -115.289062 72.050781 -116.171875 71.96875 -117.671875 Z M 75.484375 -115.03125 C 77.160156 -112.351562 76.867188 -112.351562 74.609375 -115.03125 L 75.484375 -115.03125 L 74.609375 -115.03125 Z M 4.28125 -107.125 C 6.03125 -105.875 5.734375 -104.992188 3.390625 -104.484375 Z M 61.421875 -83.390625 C 60.492188 -80.628906 59.613281 -80.628906 58.78125 -83.390625 Z M 62.296875 -80.75 C 65.054688 -72.457031 63.882812 -71.578125 58.78125 -78.109375 Z M 58.78125 -72.84375 C 64.644531 -68.570312 65.523438 -63.296875 61.421875 -57.015625 C 63.179688 -56.847656 64.0625 -55.96875 64.0625 -54.375 L 58.78125 -54.375 Z M 61.421875 -51.734375 C 63.765625 -50.898438 63.765625 -50.023438 61.421875 -49.109375 Z M 61.421875 -49.109375 C 60.492188 -46.765625 59.613281 -46.765625 58.78125 -49.109375 Z M 6.03125 -30.640625 C 7.707031 -30.390625 8.585938 -29.507812 8.671875 -28 C 6.992188 -28.25 6.113281 -29.128906 6.03125 -30.640625 Z M 116.796875 -17.453125 C 122.742188 -18.035156 122.742188 -19.796875 116.796875 -22.734375 Z M 58.78125 -12.1875 C 62.882812 -9.414062 62.882812 -6.773438 58.78125 -4.265625 Z M 64.0625 -1.625 C 65.226562 5.15625 63.46875 6.910156 58.78125 3.640625 L 61.421875 -1.625 Z M 58.78125 6.28125 C 64.894531 8.625 65.773438 11.257812 61.421875 14.1875 C 62.503906 18.125 61.625 20.765625 58.78125 22.109375 Z M 90.421875 27.375 C 92.773438 28.21875 92.773438 29.097656 90.421875 30.015625 Z M 90.421875 27.375 "/></g></g></g></svg>