<svg xmlns="http://www.w3.org/2000/svg" xmlns:xlink="http://www.w3.org/1999/xlink" width="500" zoomAndPan="magnify" viewBox="0 0 375 374.999991" height="500" preserveAspectRatio="xMidYMid meet" version="1.0"><defs><clipPath id="3a0456b1f7"><path d="M 73.355469 18.75 L 355.917969 18.75 L 355.917969 288 L 73.355469 288 Z M 73.355469 18.75 " clip-rule="nonzero"/></clipPath><clipPath id="52e7b2e521"><path d="M 19.082031 87.113281 L 301.644531 87.113281 L 301.644531 356.25 L 19.082031 356.25 Z M 19.082031 87.113281 " clip-rule="nonzero"/></clipPath></defs><g clip-path="url(#3a0456b1f7)"><path fill="#004aad" d="M 351.046875 108.722656 C 335.757812 52.429688 289.511719 18.816406 227.332031 18.816406 L 73.359375 18.816406 L 76.398438 25.78125 C 89.445312 55.691406 118.972656 75.027344 151.613281 75.039062 L 193.539062 75.039062 L 193.882812 75.027344 C 195.476562 74.914062 201.363281 74.554688 210.195312 74.554688 C 218.691406 74.554688 227.34375 74.890625 235.886719 75.546875 L 236.726562 75.609375 C 269.4375 78.183594 314.253906 86.734375 341.949219 112.808594 L 342.304688 113.140625 C 342.449219 113.277344 342.597656 113.410156 342.734375 113.554688 L 355.914062 126.679688 Z M 355.261719 173.601562 L 355.226562 174.140625 C 346.910156 244.28125 297.378906 287.851562 225.960938 287.851562 L 127.730469 287.851562 L 127.730469 155.058594 L 132.699219 155.058594 C 161.457031 155.058594 184.855469 178.453125 184.855469 207.210938 L 184.855469 230.722656 L 228.359375 230.722656 C 249.785156 230.722656 267.828125 223.6875 280.542969 210.371094 C 293.484375 196.820312 300.320312 177.238281 300.320312 153.738281 L 300.320312 152.929688 C 300.320312 134.734375 296.320312 119.046875 288.425781 106.292969 L 281.058594 94.386719 L 294.285156 98.980469 C 310.695312 104.671875 324.007812 112.257812 333.847656 121.527344 C 348.226562 135.070312 355.433594 152.589844 355.261719 173.601562 " fill-opacity="1" fill-rule="nonzero"/></g><g clip-path="url(#52e7b2e521)"><path fill="#38b6ff" d="M 23.953125 266.277344 C 39.242188 322.570312 85.488281 356.183594 147.667969 356.183594 L 301.640625 356.183594 L 298.601562 349.21875 C 285.554688 319.308594 256.027344 299.972656 223.386719 299.960938 L 181.460938 299.960938 L 181.117188 299.972656 C 179.523438 300.085938 173.636719 300.445312 164.804688 300.445312 C 156.308594 300.445312 147.65625 300.109375 139.113281 299.453125 L 138.273438 299.390625 C 105.5625 296.816406 60.746094 288.265625 33.050781 262.191406 L 32.695312 261.859375 C 32.550781 261.722656 32.402344 261.589844 32.265625 261.445312 L 19.085938 248.320312 Z M 19.738281 201.398438 L 19.773438 200.859375 C 28.089844 130.71875 77.621094 87.148438 149.039062 87.148438 L 247.269531 87.148438 L 247.269531 219.941406 L 242.300781 219.941406 C 213.542969 219.941406 190.144531 196.546875 190.144531 167.789062 L 190.144531 144.277344 L 146.640625 144.277344 C 125.214844 144.277344 107.171875 151.3125 94.457031 164.628906 C 81.515625 178.179688 74.679688 197.761719 74.679688 221.261719 L 74.679688 222.070312 C 74.679688 240.265625 78.679688 255.953125 86.574219 268.707031 L 93.941406 280.613281 L 80.714844 276.019531 C 64.304688 270.328125 50.992188 262.742188 41.152344 253.472656 C 26.773438 239.929688 19.566406 222.410156 19.738281 201.398438 " fill-opacity="1" fill-rule="nonzero"/></g></svg>