<svg xmlns="http://www.w3.org/2000/svg" xmlns:xlink="http://www.w3.org/1999/xlink" width="500" zoomAndPan="magnify" viewBox="0 0 375 374.999991" height="500" preserveAspectRatio="xMidYMid meet" version="1.0"><defs><g/></defs><rect x="-37.5" width="450" fill="#ffffff" y="-37.499999" height="449.999989" fill-opacity="1"/><rect x="-37.5" width="450" fill="#ffffff" y="-37.499999" height="449.999989" fill-opacity="1"/><path stroke-linecap="butt" transform="matrix(1.129816, 0, 0, 1.129816, -27.409963, -41.852704)" fill="none" stroke-linejoin="miter" d="M 40.102454 298.857012 C 38.96842 298.857012 37.785982 298.431749 36.558597 297.581224 C 35.424563 296.827506 34.383879 295.928576 33.440004 294.89135 C 32.589478 293.850667 31.832303 292.716632 31.171935 291.489248 C 30.981777 290.922231 30.819279 290.379416 30.677524 289.857345 C 30.53577 289.338732 30.556515 288.889268 30.746673 288.512409 L 43.359344 230.406994 L 78.082222 251.946726 L 74.396611 268.528516 L 102.460496 268.528516 L 106.851421 248.264573 L 48.462497 207.446262 L 62.77622 141.686117 L 158.156089 141.686117 C 159.383473 141.686117 160.565911 142.062976 161.699945 142.820151 C 162.833979 143.577327 163.871205 144.472799 164.818539 145.513482 C 165.669064 146.554166 166.422782 147.684743 167.086607 148.915584 C 167.463466 150.142969 167.60522 151.183652 167.511869 152.034178 L 155.604512 206.312228 L 120.881634 184.769039 L 123.574965 172.014613 L 95.9398 172.014613 L 92.679452 186.895352 L 150.930079 227.855417 L 135.482323 298.857012 Z M 40.102454 298.857012 " stroke="#ffffff" stroke-width="11.247381" stroke-opacity="1" stroke-miterlimit="4"/><g fill="#0cc0df" fill-opacity="1"><g transform="translate(0.923708, 295.962332)"><g><path d="M 16.96875 -0.15625 C 15.6875 -0.15625 14.351562 -0.632812 12.96875 -1.59375 C 11.6875 -2.445312 10.515625 -3.460938 9.453125 -4.640625 C 8.484375 -5.816406 7.628906 -7.097656 6.890625 -8.484375 C 6.671875 -9.128906 6.476562 -9.742188 6.3125 -10.328125 C 6.15625 -10.910156 6.1875 -11.414062 6.40625 -11.84375 L 20.65625 -77.5 L 59.890625 -53.15625 L 55.71875 -34.421875 L 87.421875 -34.421875 L 92.390625 -57.328125 L 26.421875 -103.4375 L 42.59375 -177.734375 L 150.34375 -177.734375 C 151.738281 -177.734375 153.078125 -177.304688 154.359375 -176.453125 C 155.640625 -175.597656 156.8125 -174.582031 157.875 -173.40625 C 158.832031 -172.226562 159.6875 -170.945312 160.4375 -169.5625 C 160.863281 -168.175781 161.023438 -167.003906 160.921875 -166.046875 L 147.46875 -104.71875 L 108.234375 -129.0625 L 111.28125 -143.46875 L 80.0625 -143.46875 L 76.375 -126.65625 L 142.1875 -80.375 L 124.734375 -0.15625 Z M 16.96875 -0.15625 "/></g></g></g><path stroke-linecap="butt" transform="matrix(1.129816, 0, 0, 1.129816, 98.183362, -41.852704)" fill="none" stroke-linejoin="miter" d="M 53.130391 141.686117 L 114.212646 141.686117 L 79.918488 298.857012 L 40.375966 298.857012 L 69.853936 163.654569 Z M 53.130391 141.686117 " stroke="#ffffff" stroke-width="11.247381" stroke-opacity="1" stroke-miterlimit="4"/><g fill="#38b6ff" fill-opacity="1"><g transform="translate(143.64081, 295.962332)"><g><path d="M 14.578125 -177.734375 L 83.578125 -177.734375 L 44.828125 -0.15625 L 0.15625 -0.15625 L 33.46875 -152.90625 Z M 14.578125 -177.734375 "/></g></g></g><path stroke-linecap="butt" transform="matrix(1.129816, 0, 0, 1.129816, 207.049225, -41.852704)" fill="none" stroke-linejoin="miter" d="M 142.288076 141.686117 L 132.365278 186.611844 L 93.109721 186.611844 L 96.224858 172.014613 L 80.06833 172.014613 L 72.984075 204.185914 L 123.579971 204.185914 L 82.478152 234.51441 L 66.321625 234.51441 L 58.953861 268.528516 L 75.110388 268.528516 L 78.370736 253.789531 L 117.768047 253.789531 L 107.848707 298.857012 L 12.752346 298.857012 L 42.37207 163.654569 L 25.506772 141.686117 Z M 142.288076 141.686117 " stroke="#ffffff" stroke-width="11.247381" stroke-opacity="1" stroke-miterlimit="4"/><g fill="#5ce1e6" fill-opacity="1"><g transform="translate(221.2955, 295.962332)"><g><path d="M 146.515625 -177.734375 L 135.296875 -126.96875 L 90.953125 -126.96875 L 94.46875 -143.46875 L 76.21875 -143.46875 L 68.203125 -107.125 L 125.375 -107.125 L 78.9375 -72.859375 L 60.6875 -72.859375 L 52.359375 -34.421875 L 70.609375 -34.421875 L 74.296875 -51.078125 L 118.8125 -51.078125 L 107.59375 -0.15625 L 0.15625 -0.15625 L 33.625 -152.90625 L 14.578125 -177.734375 Z M 146.515625 -177.734375 "/></g></g></g></svg>