<svg xmlns="http://www.w3.org/2000/svg" xmlns:xlink="http://www.w3.org/1999/xlink" width="500" zoomAndPan="magnify" viewBox="0 0 375 374.999991" height="500" preserveAspectRatio="xMidYMid meet" version="1.0"><defs><g/><clipPath id="7b78d93971"><path d="M 127 2.542969 L 344 2.542969 L 344 339 L 127 339 Z M 127 2.542969 " clip-rule="nonzero"/></clipPath><clipPath id="6a0562a7b8"><path d="M 29.59375 69 L 209 69 L 209 339 L 29.59375 339 Z M 29.59375 69 " clip-rule="nonzero"/></clipPath></defs><g fill="#000000" fill-opacity="1"><g transform="translate(133.899766, 174.951478)"><g><path d="M 6.640625 0 L 6.390625 -1.21875 L 6.328125 -1.21875 C 5.898438 -0.6875 5.472656 -0.320312 5.046875 -0.125 C 4.617188 0.0625 4.085938 0.15625 3.453125 0.15625 C 2.609375 0.15625 1.941406 -0.0625 1.453125 -0.5 C 0.972656 -0.9375 0.734375 -1.5625 0.734375 -2.375 C 0.734375 -4.101562 2.117188 -5.007812 4.890625 -5.09375 L 6.34375 -5.140625 L 6.34375 -5.671875 C 6.34375 -6.335938 6.195312 -6.832031 5.90625 -7.15625 C 5.613281 -7.476562 5.148438 -7.640625 4.515625 -7.640625 C 3.804688 -7.640625 3 -7.421875 2.09375 -6.984375 L 1.703125 -7.96875 C 2.117188 -8.195312 2.578125 -8.375 3.078125 -8.5 C 3.585938 -8.632812 4.09375 -8.703125 4.59375 -8.703125 C 5.613281 -8.703125 6.367188 -8.472656 6.859375 -8.015625 C 7.359375 -7.566406 7.609375 -6.84375 7.609375 -5.84375 L 7.609375 0 Z M 3.71875 -0.921875 C 4.519531 -0.921875 5.148438 -1.140625 5.609375 -1.578125 C 6.078125 -2.023438 6.3125 -2.644531 6.3125 -3.4375 L 6.3125 -4.21875 L 5.015625 -4.15625 C 3.984375 -4.125 3.238281 -3.960938 2.78125 -3.671875 C 2.320312 -3.390625 2.09375 -2.953125 2.09375 -2.359375 C 2.09375 -1.890625 2.234375 -1.53125 2.515625 -1.28125 C 2.804688 -1.039062 3.207031 -0.921875 3.71875 -0.921875 Z M 3.71875 -0.921875 "/></g></g></g><g clip-path="url(#7b78d93971)"><path fill="#2b3990" d="M 253.722656 2.554688 C 253.722656 22.042969 253.722656 58.367188 253.722656 77.425781 C 243.070312 73.664062 231.796875 71.199219 220.101562 70.242188 C 220.101562 95.613281 220.101562 135.449219 220.101562 160.816406 C 256.304688 169.746094 265.71875 218.582031 235.480469 240.308594 C 216.492188 255.007812 186.425781 250.40625 172.71875 230.683594 C 167.117188 261.582031 151.054688 290.417969 127.902344 311.5625 C 207.210938 372.277344 325.488281 325.332031 341.511719 226.632812 C 345.339844 201.476562 342.566406 162.722656 343.371094 137 C 343.390625 94.488281 343.355469 45.21875 343.371094 2.554688 C 321.027344 2.554688 276.0625 2.554688 253.722656 2.554688 Z M 253.722656 2.554688 " fill-opacity="1" fill-rule="nonzero"/></g><g clip-path="url(#6a0562a7b8)"><path fill="#00aeef" d="M 162.210938 226.632812 C 165.246094 212.097656 161.683594 194.800781 170.066406 181.816406 C 177.898438 168.121094 193.003906 159.296875 208.894531 159.40625 C 208.894531 134.394531 208.894531 94.789062 208.894531 69.777344 C 144.714844 68.855469 86.128906 118.351562 76.28125 181.816406 C 73.242188 196.351562 76.808594 213.644531 68.421875 226.632812 C 60.589844 240.324219 45.484375 249.144531 29.59375 249.039062 C 29.59375 274.050781 29.59375 313.65625 29.59375 338.671875 C 93.773438 339.589844 152.363281 290.09375 162.210938 226.632812 Z M 162.210938 226.632812 " fill-opacity="1" fill-rule="nonzero"/></g></svg>